<svg width="100%" height="100%" viewBox="0 0 100 100" xmlns="http://www.w3.org/2000/svg">
  <defs>
    <radialGradient id="glow" cx="50%" cy="50%" r="50%">
      <stop offset="0%" stop-color="#ffffff" stop-opacity="1"/>
      <stop offset="60%" stop-color="#ffeeff" stop-opacity="0.6"/>
      <stop offset="100%" stop-color="#cc66ff" stop-opacity="0.2"/>
    </radialGradient>
  </defs>

  <!-- Outer glow -->
  <circle cx="50" cy="50" r="46" fill="url(#glow)"/>

  <!-- Sun rays -->
  <g stroke="#ffffff" stroke-width="4" stroke-linecap="round">
    <line x1="50" y1="5" x2="50" y2="18"/>
    <line x1="50" y1="82" x2="50" y2="95"/>
    <line x1="5" y1="50" x2="18" y2="50"/>
    <line x1="82" y1="50" x2="95" y2="50"/>
    <line x1="22" y1="22" x2="32" y2="32"/>
    <line x1="68" y1="68" x2="78" y2="78"/>
    <line x1="22" y1="78" x2="32" y2="68"/>
    <line x1="68" y1="32" x2="78" y2="22"/>
  </g>

  <!-- Moon crescent -->
  <path d="M65 50c0 14-11 25-25 25a25 25 0 0 1 0-50c14 0 25 11 25 25z"
        fill="#ffffff" opacity="0.85"/>
</svg>
